<?xml version="1.0" encoding="UTF-8"?>
<!DOCTYPE svg PUBLIC "-//W3C//DTD SVG 1.1//EN" "http://www.w3.org/Graphics/SVG/1.1/DTD/svg11.dtd">
<svg xmlns="http://www.w3.org/2000/svg" version="1.1" width="3888px" height="3684px" style="shape-rendering:geometricPrecision; text-rendering:geometricPrecision; image-rendering:optimizeQuality; fill-rule:evenodd; clip-rule:evenodd" xmlns:xlink="http://www.w3.org/1999/xlink">
<g><path style="opacity:0.998" fill="#fe0000" d="M 1791.5,-0.5 C 1831.17,-0.5 1870.83,-0.5 1910.5,-0.5C 2303.84,16.7534 2656.17,144.253 2967.5,382C 3208.91,569.729 3394.41,801.896 3524,1078.5C 3541.97,1117.93 3558.47,1157.93 3573.5,1198.5C 3361.83,1198.67 3150.17,1198.5 2938.5,1198C 2798.49,968.005 2604.16,801.005 2355.5,697C 2134.89,608.819 1906.72,580.319 1671,611.5C 1416.18,647.356 1193.68,750.522 1003.5,921C 802.753,1107.8 677.253,1336.96 627,1608.5C 580.812,1879.33 613.146,2140.33 724,2391.5C 823.734,2610.57 972.234,2789.07 1169.5,2927C 1414.32,3091.29 1683.98,3159.29 1978.5,3131C 2171.83,3108.57 2349.83,3044.57 2512.5,2939C 2688.48,2823.53 2830.48,2675.69 2938.5,2495.5C 3150.17,2494.5 3361.83,2494.17 3573.5,2494.5C 3519.1,2640.33 3447.27,2776.33 3358,2902.5C 3152.01,3190.25 2886.18,3403.42 2560.5,3542C 2352.32,3628.38 2135.66,3675.55 1910.5,3683.5C 1871.17,3683.5 1831.83,3683.5 1792.5,3683.5C 1388.59,3666.51 1027.59,3535.01 709.5,3289C 442.552,3078 246.385,2814.17 121,2497.5C 47.3662,2305.5 6.86618,2106.83 -0.5,1901.5C -0.5,1861.5 -0.5,1821.5 -0.5,1781.5C 18.7122,1352 166.546,974.338 443,648.5C 694.341,359.454 1005.51,163.62 1376.5,61C 1512.69,25.0775 1651.02,4.57747 1791.5,-0.5 Z"/></g>
<g><path style="opacity:0.998" fill="#fe0000" d="M 3887.5,1624.5 C 3887.5,1624.83 3887.5,1625.17 3887.5,1625.5C 3674.99,1777.17 3462.32,1928.67 3249.5,2080C 2982.17,2080.33 2714.83,2080.67 2447.5,2081C 2373.86,2260.31 2246.53,2384.64 2065.5,2454C 1919.17,2505.24 1772.84,2505.24 1626.5,2454C 1480.1,2398.58 1366.93,2303.75 1287,2169.5C 1208.62,2029.52 1183.95,1880.52 1213,1722.5C 1253.69,1534.13 1355.86,1389.96 1519.5,1290C 1668.91,1205.27 1827.58,1181.61 1995.5,1219C 2154.34,1259.28 2281.18,1345.78 2376,1478.5C 2406.9,1523.62 2432.06,1571.96 2451.5,1623.5C 2930.17,1624.5 3408.83,1624.83 3887.5,1624.5 Z"/></g>
</svg>
